<?xml version="1.0" encoding="UTF-8" standalone="no"?>
<!DOCTYPE svg PUBLIC "-//W3C//DTD SVG 1.1//EN" "http://www.w3.org/Graphics/SVG/1.1/DTD/svg11.dtd">
<svg version="1.1" xmlns="http://www.w3.org/2000/svg" xmlns:xlink="http://www.w3.org/1999/xlink" preserveAspectRatio="xMidYMid meet" viewBox="0 0 640 640" width="640" height="640"><defs><path d="M17.37 35.46C7.82 55.88 11.8 78.55 27.85 94.47C48.4 115.15 78.9 115.15 99.46 94.47C120.28 73.78 120.28 42.22 99.46 21.53C86.73 8.67 70.68 3.63 53.57 6.95C39.38 9.73 23.47 22.33 17.37 35.46ZM43.5 49.38C44.56 49.38 49.33 44.47 53.04 39.7C54.63 37.58 54.63 37.05 52.91 35.99C51.58 35.19 52.65 34.79 56.36 34.79C56.71 34.79 58.48 34.79 61.66 34.79C59.67 36.62 58.57 37.64 58.35 37.84C56.49 39.43 53.57 42.35 51.72 44.34C51.51 44.59 50.5 45.83 48.67 48.05C52.17 53.23 54.11 56.1 54.5 56.67C62.06 67.81 63.65 68.48 63.65 59.99C63.65 55.22 62.99 53.09 61.4 52.17C59.54 51.1 60.73 50.84 66.3 50.84C71.87 50.84 73.07 51.1 71.34 52.17C69.62 53.09 68.96 55.22 68.96 59.99C68.96 60.43 68.96 62.64 68.96 66.62L76.25 66.62L83.54 66.62C83.54 63.12 83.54 61.17 83.54 60.78C83.54 57.2 82.75 54.02 81.42 52.83C79.57 50.84 79.96 50.71 85.8 50.84C89.25 50.84 91.37 51.24 90.57 51.63C89.38 52.03 88.85 56.54 88.85 67.28C88.85 78.02 89.38 82.53 90.57 82.93C91.37 83.33 89.25 83.73 85.8 83.73C79.96 83.86 79.57 83.73 81.42 81.74C82.75 80.54 83.54 77.36 83.54 73.78C83.54 73.39 83.54 71.45 83.54 67.95L76.25 67.95L68.96 67.95C68.96 71.92 68.96 74.13 68.96 74.58C68.96 79.35 69.62 81.47 71.34 82.4C73.07 83.46 71.87 83.73 66.3 83.73C60.73 83.73 59.54 83.46 61.4 82.4C62.99 81.47 63.65 79.35 63.65 74.58C63.65 74.13 63.65 71.92 63.65 67.95C59.91 67.95 57.84 67.95 57.42 67.95C53.84 67.95 51.72 67.42 52.65 66.88C53.84 66.09 53.04 63.97 49.73 59.06C47.21 55.35 44.56 51.9 43.76 51.37C41.51 49.91 42.17 63.44 44.56 65.82C46.41 67.81 46.02 67.95 40.18 67.81C36.73 67.81 34.61 67.42 35.54 67.02C36.6 66.62 37.13 62.11 37.13 51.37C37.13 40.63 36.6 36.12 35.54 35.72C34.61 35.32 36.73 34.93 40.18 34.93C46.02 34.79 46.41 34.93 44.56 36.92C42.43 39.04 41.51 49.38 43.5 49.38Z" id="eBs5OvwKt"></path></defs><g><g><g><use xlink:href="#eBs5OvwKt" opacity="1" fill="#6d5e42" fill-opacity="1"></use><g><use xlink:href="#eBs5OvwKt" opacity="1" fill-opacity="0" stroke="#000000" stroke-width="1" stroke-opacity="0"></use></g></g></g></g></svg>